<svg xmlns="http://www.w3.org/2000/svg" viewBox="0 0 40 40">
  <!-- Background -->
  <rect width="40" height="40" rx="9" fill="#ff385c"/>

  <!-- Left page -->
  <path d="M8 12 Q8 10 10.5 10 L18.2 10 Q19.5 10 19.5 11.5 L19.5 30 Q13 28.5 8 30.5 Z" fill="white" opacity="0.95"/>

  <!-- Right page -->
  <path d="M32 12 Q32 10 29.5 10 L21.8 10 Q20.5 10 20.5 11.5 L20.5 30 Q27 28.5 32 30.5 Z" fill="white"/>

  <!-- Spine shadow (left) -->
  <path d="M17.5 10.5 L19.5 11.5 L19.5 30 L17.5 29.5 Z" fill="#ff385c" opacity="0.12"/>
  <!-- Spine shadow (right) -->
  <path d="M22.5 10.5 L20.5 11.5 L20.5 30 L22.5 29.5 Z" fill="#ff385c" opacity="0.12"/>

  <!-- Text lines left page -->
  <rect x="10" y="15.5" width="7"   height="1.2" rx="0.6" fill="#ff385c" opacity="0.3"/>
  <rect x="10" y="18.8" width="5.5" height="1.2" rx="0.6" fill="#ff385c" opacity="0.3"/>
  <rect x="10" y="22.1" width="6.5" height="1.2" rx="0.6" fill="#ff385c" opacity="0.3"/>
  <rect x="10" y="25.4" width="4.5" height="1.2" rx="0.6" fill="#ff385c" opacity="0.3"/>

  <!-- Text lines right page -->
  <rect x="23" y="15.5" width="7"   height="1.2" rx="0.6" fill="#ff385c" opacity="0.3"/>
  <rect x="23" y="18.8" width="5.5" height="1.2" rx="0.6" fill="#ff385c" opacity="0.3"/>
  <rect x="23" y="22.1" width="6.5" height="1.2" rx="0.6" fill="#ff385c" opacity="0.3"/>
  <rect x="23" y="25.4" width="4.5" height="1.2" rx="0.6" fill="#ff385c" opacity="0.3"/>
</svg>
